<?xml version="1.0" standalone="no"?><!DOCTYPE svg PUBLIC "-//W3C//DTD SVG 1.1//EN" "http://www.w3.org/Graphics/SVG/1.1/DTD/svg11.dtd"><svg t="1586876652427" class="icon" viewBox="0 0 1024 1024" version="1.1" xmlns="http://www.w3.org/2000/svg" p-id="3368" xmlns:xlink="http://www.w3.org/1999/xlink" width="200" height="200"><defs><style type="text/css"></style></defs><path d="M512 938.666667A426.666667 426.666667 0 1 0 85.333333 512a426.666667 426.666667 0 0 0 426.666667 426.666667zM354.56 432.64l128-122.026667a20.906667 20.906667 0 0 1 6.4-4.266666 23.04 23.04 0 0 1 6.826667-4.266667 40.106667 40.106667 0 0 1 32.426666 0 42.666667 42.666667 0 0 1 14.08 8.96l128 128a42.666667 42.666667 0 0 1-60.586666 60.586667L554.666667 444.16V682.666667a42.666667 42.666667 0 0 1-85.333334 0v-241.493334l-55.893333 53.333334a42.666667 42.666667 0 0 1-58.88-61.866667z" p-id="3369"></path></svg>